<svg width="38" height="35" viewBox="0 0 38 35" fill="none" xmlns="http://www.w3.org/2000/svg">
<g id="card-favorite">
<path id="Path" d="M34.9756 22.4043C33.034 20.3124 29.6774 20.6024 28.1136 22.9755C26.5466 20.5984 23.186 20.3148 21.2468 22.4091C19.6075 24.18 19.7948 26.9634 21.4952 28.6761L27.5388 34.7622C27.8539 35.0793 28.3701 35.0793 28.6852 34.7622L34.7304 28.6761C36.434 26.9618 36.6189 24.1744 34.9756 22.4043Z" fill="#68D585"/>
<path id="Path_2" opacity="0.4" d="M14.2799 21H5.94661C5.48578 21 5.11328 20.552 5.11328 20C5.11328 19.448 5.48578 19 5.94661 19H14.2799C14.7408 19 15.1133 19.448 15.1133 20C15.1133 20.552 14.7408 21 14.2799 21Z" fill="#68D585"/>
<path id="Shape" opacity="0.4" fill-rule="evenodd" clip-rule="evenodd" d="M3.33067 0H33.8959C35.6703 0 37.1133 1.47741 37.1133 3.29412V18.1176H35.5046V14H1.72198V24.7059C1.72198 25.6142 2.44348 26.3529 3.33067 26.3529H16.2002V28H3.33067C1.55628 28 0.113281 26.5226 0.113281 24.7059V3.29412C0.113281 1.47741 1.55628 0 3.33067 0ZM1.72198 7.41176H35.5046V3.29412C35.5046 2.38576 34.7831 1.64706 33.8959 1.64706H3.33067C2.44348 1.64706 1.72198 2.38576 1.72198 3.29412V7.41176Z" fill="#68D585"/>
</g>
</svg>
