<svg width="156" height="142" viewBox="0 0 156 142" fill="none" xmlns="http://www.w3.org/2000/svg">
<g id="Dots">
<path id="Fill 1" fill-rule="evenodd" clip-rule="evenodd" d="M4 26C5.052 26 6.084 25.574 6.828 24.828C7.574 24.084 8 23.054 8 22C8 20.946 7.574 19.916 6.828 19.172C6.084 18.426 5.052 18 4 18C2.946 18 1.916 18.426 1.17 19.172C0.426 19.916 0 20.946 0 22C0 23.054 0.426 24.084 1.17 24.828C1.916 25.574 2.946 26 4 26" fill="#130D3A"/>
<path id="Fill 3" fill-rule="evenodd" clip-rule="evenodd" d="M45.99 26H46.01C48.2145 26 50 24.208 50 22C50 19.792 48.2145 18 46.01 18H45.99C43.7875 18 42 19.792 42 22C42 24.208 43.7875 26 45.99 26" fill="#130D3A"/>
<path id="Fill 5" fill-rule="evenodd" clip-rule="evenodd" d="M24.99 26H25.01C27.2125 26 29 24.208 29 22C29 19.792 27.2125 18 25.01 18H24.99C22.7875 18 21 19.792 21 22C21 24.208 22.7875 26 24.99 26" fill="#130D3A"/>
<path id="Fill 7" fill-rule="evenodd" clip-rule="evenodd" d="M67 26C68.052 26 69.084 25.574 69.828 24.828C70.574 24.084 71 23.054 71 22C71 20.946 70.574 19.916 69.828 19.172C69.084 18.426 68.052 18 67 18C65.946 18 64.916 18.426 64.17 19.172C63.426 19.916 63 20.946 63 22C63 23.054 63.426 24.084 64.17 24.828C64.916 25.574 65.946 26 67 26" fill="#130D3A"/>
<path id="Fill 9" fill-rule="evenodd" clip-rule="evenodd" d="M89 26C90.054 26 91.084 25.574 91.83 24.828C92.574 24.084 93 23.054 93 22C93 20.946 92.574 19.916 91.83 19.172C91.084 18.426 90.054 18 89 18C87.948 18 86.916 18.426 86.172 19.172C85.426 19.916 85 20.946 85 22C85 23.054 85.426 24.084 86.172 24.828C86.916 25.574 87.948 26 89 26" fill="#130D3A"/>
<path id="Fill 11" fill-rule="evenodd" clip-rule="evenodd" d="M130.99 26H131.01C133.214 26 135 24.208 135 22C135 19.792 133.214 18 131.01 18H130.99C128.788 18 127 19.792 127 22C127 24.208 128.788 26 130.99 26" fill="#130D3A"/>
<path id="Fill 13" fill-rule="evenodd" clip-rule="evenodd" d="M108.99 26H109.01C111.212 26 113 24.208 113 22C113 19.792 111.212 18 109.01 18H108.99C106.788 18 105 19.792 105 22C105 24.208 106.788 26 108.99 26" fill="#130D3A"/>
<g id="Group 17">
<mask id="mask0_0_631" style="mask-type:luminance" maskUnits="userSpaceOnUse" x="147" y="17" width="9" height="9">
<path id="Clip 16" fill-rule="evenodd" clip-rule="evenodd" d="M147.389 17.9849H155.617V25.9849H147.389V17.9849Z" fill="white"/>
</mask>
<g mask="url(#mask0_0_631)">
<path id="Fill 15" fill-rule="evenodd" clip-rule="evenodd" d="M151.503 25.9849C152.585 25.9849 153.647 25.5589 154.412 24.8129C155.179 24.0689 155.617 23.0389 155.617 21.9849C155.617 20.9309 155.179 19.9009 154.412 19.1569C153.647 18.4109 152.585 17.9849 151.503 17.9849C150.419 17.9849 149.359 18.4109 148.592 19.1569C147.827 19.9009 147.389 20.9309 147.389 21.9849C147.389 23.0389 147.827 24.0689 148.592 24.8129C149.359 25.5589 150.419 25.9849 151.503 25.9849" fill="#130D3A"/>
</g>
</g>
<path id="Fill 18" fill-rule="evenodd" clip-rule="evenodd" d="M4 9C5.052 9 6.084 8.574 6.828 7.828C7.574 7.084 8 6.052 8 5C8 3.946 7.574 2.916 6.828 2.17C6.084 1.426 5.052 1 4 1C2.946 1 1.916 1.426 1.17 2.17C0.426 2.916 0 3.946 0 5C0 6.052 0.426 7.084 1.17 7.828C1.916 8.574 2.946 9 4 9" fill="#130D3A"/>
<path id="Fill 20" fill-rule="evenodd" clip-rule="evenodd" d="M45.99 9H46.01C48.2145 9 50 7.208 50 5C50 2.792 48.2145 1 46.01 1H45.99C43.7875 1 42 2.792 42 5C42 7.208 43.7875 9 45.99 9" fill="#130D3A"/>
<path id="Fill 22" fill-rule="evenodd" clip-rule="evenodd" d="M24.99 9H25.01C27.2125 9 29 7.208 29 5C29 2.792 27.2125 1 25.01 1H24.99C22.7875 1 21 2.792 21 5C21 7.208 22.7875 9 24.99 9" fill="#130D3A"/>
<path id="Fill 24" fill-rule="evenodd" clip-rule="evenodd" d="M67 9C68.052 9 69.084 8.574 69.828 7.828C70.574 7.084 71 6.052 71 5C71 3.946 70.574 2.916 69.828 2.17C69.084 1.426 68.052 1 67 1C65.946 1 64.916 1.426 64.17 2.17C63.426 2.916 63 3.946 63 5C63 6.052 63.426 7.084 64.17 7.828C64.916 8.574 65.946 9 67 9" fill="#130D3A"/>
<path id="Fill 26" fill-rule="evenodd" clip-rule="evenodd" d="M89 9C90.054 9 91.084 8.574 91.83 7.828C92.574 7.084 93 6.052 93 5C93 3.946 92.574 2.916 91.83 2.17C91.084 1.426 90.054 1 89 1C87.948 1 86.916 1.426 86.172 2.17C85.426 2.916 85 3.946 85 5C85 6.052 85.426 7.084 86.172 7.828C86.916 8.574 87.948 9 89 9" fill="#130D3A"/>
<path id="Fill 28" fill-rule="evenodd" clip-rule="evenodd" d="M130.99 9H131.01C133.214 9 135 7.208 135 5C135 2.792 133.214 1 131.01 1H130.99C128.788 1 127 2.792 127 5C127 7.208 128.788 9 130.99 9" fill="#130D3A"/>
<path id="Fill 30" fill-rule="evenodd" clip-rule="evenodd" d="M108.99 9H109.01C111.212 9 113 7.208 113 5C113 2.792 111.212 1 109.01 1H108.99C106.788 1 105 2.792 105 5C105 7.208 106.788 9 108.99 9" fill="#130D3A"/>
<g id="Group 34">
<mask id="mask1_0_631" style="mask-type:luminance" maskUnits="userSpaceOnUse" x="147" y="0" width="9" height="9">
<path id="Clip 33" fill-rule="evenodd" clip-rule="evenodd" d="M147.389 0.569824H155.617V8.7984H147.389V0.569824Z" fill="white"/>
</mask>
<g mask="url(#mask1_0_631)">
<path id="Fill 32" fill-rule="evenodd" clip-rule="evenodd" d="M151.503 8.7984C152.585 8.7984 153.647 8.36022 154.412 7.59291C155.179 6.82765 155.617 5.76617 155.617 4.68411C155.617 3.6 155.179 2.54057 154.412 1.77325C153.647 1.008 152.585 0.569824 151.503 0.569824C150.419 0.569824 149.359 1.008 148.592 1.77325C147.827 2.54057 147.389 3.6 147.389 4.68411C147.389 5.76617 147.827 6.82765 148.592 7.59291C149.359 8.36022 150.419 8.7984 151.503 8.7984" fill="#130D3A"/>
</g>
</g>
<path id="Fill 35" fill-rule="evenodd" clip-rule="evenodd" d="M4 42C5.052 42 6.084 41.574 6.828 40.828C7.574 40.084 8 39.054 8 38C8 36.948 7.574 35.916 6.828 35.172C6.084 34.426 5.052 34 4 34C2.946 34 1.916 34.426 1.17 35.172C0.426 35.916 0 36.948 0 38C0 39.054 0.426 40.084 1.17 40.828C1.916 41.574 2.946 42 4 42" fill="#130D3A"/>
<path id="Fill 37" fill-rule="evenodd" clip-rule="evenodd" d="M45.99 42H46.01C48.2145 42 50 40.208 50 38C50 35.792 48.2145 34 46.01 34H45.99C43.7875 34 42 35.792 42 38C42 40.208 43.7875 42 45.99 42" fill="#130D3A"/>
<path id="Fill 39" fill-rule="evenodd" clip-rule="evenodd" d="M24.99 42H25.01C27.2125 42 29 40.208 29 38C29 35.792 27.2125 34 25.01 34H24.99C22.7875 34 21 35.792 21 38C21 40.208 22.7875 42 24.99 42" fill="#130D3A"/>
<path id="Fill 41" fill-rule="evenodd" clip-rule="evenodd" d="M67 42C68.052 42 69.084 41.574 69.828 40.828C70.574 40.084 71 39.054 71 38C71 36.948 70.574 35.916 69.828 35.172C69.084 34.426 68.052 34 67 34C65.946 34 64.916 34.426 64.17 35.172C63.426 35.916 63 36.948 63 38C63 39.054 63.426 40.084 64.17 40.828C64.916 41.574 65.946 42 67 42" fill="#130D3A"/>
<path id="Fill 43" fill-rule="evenodd" clip-rule="evenodd" d="M89 42C90.054 42 91.084 41.574 91.83 40.828C92.574 40.084 93 39.054 93 38C93 36.948 92.574 35.916 91.83 35.172C91.084 34.426 90.054 34 89 34C87.948 34 86.916 34.426 86.172 35.172C85.426 35.916 85 36.948 85 38C85 39.054 85.426 40.084 86.172 40.828C86.916 41.574 87.948 42 89 42" fill="#130D3A"/>
<path id="Fill 45" fill-rule="evenodd" clip-rule="evenodd" d="M130.99 42H131.01C133.214 42 135 40.208 135 38C135 35.792 133.214 34 131.01 34H130.99C128.788 34 127 35.792 127 38C127 40.208 128.788 42 130.99 42" fill="#130D3A"/>
<path id="Fill 47" fill-rule="evenodd" clip-rule="evenodd" d="M108.99 42H109.01C111.212 42 113 40.208 113 38C113 35.792 111.212 34 109.01 34H108.99C106.788 34 105 35.792 105 38C105 40.208 106.788 42 108.99 42" fill="#130D3A"/>
<g id="Group 51">
<mask id="mask2_0_631" style="mask-type:luminance" maskUnits="userSpaceOnUse" x="147" y="34" width="9" height="9">
<path id="Clip 50" fill-rule="evenodd" clip-rule="evenodd" d="M147.389 34.1702H155.617V42.3987H147.389V34.1702Z" fill="white"/>
</mask>
<g mask="url(#mask2_0_631)">
<path id="Fill 49" fill-rule="evenodd" clip-rule="evenodd" d="M151.503 42.3987C152.585 42.3987 153.647 41.9606 154.412 41.1933C155.179 40.428 155.617 39.3686 155.617 38.2845C155.617 37.2024 155.179 36.1409 154.412 35.3757C153.647 34.6083 152.585 34.1702 151.503 34.1702C150.419 34.1702 149.359 34.6083 148.592 35.3757C147.827 36.1409 147.389 37.2024 147.389 38.2845C147.389 39.3686 147.827 40.428 148.592 41.1933C149.359 41.9606 150.419 42.3987 151.503 42.3987" fill="#130D3A"/>
</g>
</g>
<path id="Fill 52" fill-rule="evenodd" clip-rule="evenodd" d="M4 59C5.052 59 6.084 58.574 6.828 57.828C7.574 57.084 8 56.054 8 55C8 53.946 7.574 52.916 6.828 52.172C6.084 51.426 5.052 51 4 51C2.946 51 1.916 51.426 1.17 52.172C0.426 52.916 0 53.946 0 55C0 56.054 0.426 57.084 1.17 57.828C1.916 58.574 2.946 59 4 59" fill="#130D3A"/>
<path id="Fill 54" fill-rule="evenodd" clip-rule="evenodd" d="M45.99 59H46.01C48.2145 59 50 57.208 50 55C50 52.792 48.2145 51 46.01 51H45.99C43.7875 51 42 52.792 42 55C42 57.208 43.7875 59 45.99 59" fill="#130D3A"/>
<path id="Fill 56" fill-rule="evenodd" clip-rule="evenodd" d="M24.99 59H25.01C27.2125 59 29 57.208 29 55C29 52.792 27.2125 51 25.01 51H24.99C22.7875 51 21 52.792 21 55C21 57.208 22.7875 59 24.99 59" fill="#130D3A"/>
<path id="Fill 58" fill-rule="evenodd" clip-rule="evenodd" d="M67 59C68.052 59 69.084 58.574 69.828 57.828C70.574 57.084 71 56.054 71 55C71 53.946 70.574 52.916 69.828 52.172C69.084 51.426 68.052 51 67 51C65.946 51 64.916 51.426 64.17 52.172C63.426 52.916 63 53.946 63 55C63 56.054 63.426 57.084 64.17 57.828C64.916 58.574 65.946 59 67 59" fill="#130D3A"/>
<path id="Fill 60" fill-rule="evenodd" clip-rule="evenodd" d="M89 59C90.054 59 91.084 58.574 91.83 57.828C92.574 57.084 93 56.054 93 55C93 53.946 92.574 52.916 91.83 52.172C91.084 51.426 90.054 51 89 51C87.948 51 86.916 51.426 86.172 52.172C85.426 52.916 85 53.946 85 55C85 56.054 85.426 57.084 86.172 57.828C86.916 58.574 87.948 59 89 59" fill="#130D3A"/>
<path id="Fill 62" fill-rule="evenodd" clip-rule="evenodd" d="M130.99 59H131.01C133.214 59 135 57.208 135 55C135 52.792 133.214 51 131.01 51H130.99C128.788 51 127 52.792 127 55C127 57.208 128.788 59 130.99 59" fill="#130D3A"/>
<path id="Fill 64" fill-rule="evenodd" clip-rule="evenodd" d="M108.99 59H109.01C111.212 59 113 57.208 113 55C113 52.792 111.212 51 109.01 51H108.99C106.788 51 105 52.792 105 55C105 57.208 106.788 59 108.99 59" fill="#130D3A"/>
<g id="Group 68">
<mask id="mask3_0_631" style="mask-type:luminance" maskUnits="userSpaceOnUse" x="147" y="51" width="9" height="9">
<path id="Clip 67" fill-rule="evenodd" clip-rule="evenodd" d="M147.389 51.613H155.617V59.8416H147.389V51.613Z" fill="white"/>
</mask>
<g mask="url(#mask3_0_631)">
<path id="Fill 66" fill-rule="evenodd" clip-rule="evenodd" d="M151.503 59.8416C152.585 59.8416 153.647 59.4034 154.412 58.6361C155.179 57.8709 155.617 56.8114 155.617 55.7273C155.617 54.6432 155.179 53.5838 154.412 52.8185C153.647 52.0512 152.585 51.613 151.503 51.613C150.419 51.613 149.359 52.0512 148.592 52.8185C147.827 53.5838 147.389 54.6432 147.389 55.7273C147.389 56.8114 147.827 57.8709 148.592 58.6361C149.359 59.4034 150.419 59.8416 151.503 59.8416" fill="#130D3A"/>
</g>
</g>
<path id="Fill 69" fill-rule="evenodd" clip-rule="evenodd" d="M4 76C5.052 76 6.084 75.574 6.828 74.828C7.574 74.084 8 73.054 8 72C8 70.948 7.574 69.916 6.828 69.172C6.084 68.426 5.052 68 4 68C2.946 68 1.916 68.426 1.17 69.172C0.426 69.916 0 70.948 0 72C0 73.054 0.426 74.084 1.17 74.828C1.916 75.574 2.946 76 4 76" fill="#130D3A"/>
<path id="Fill 71" fill-rule="evenodd" clip-rule="evenodd" d="M45.99 76H46.01C48.2145 76 50 74.208 50 72C50 69.792 48.2145 68 46.01 68H45.99C43.7875 68 42 69.792 42 72C42 74.208 43.7875 76 45.99 76" fill="#130D3A"/>
<path id="Fill 73" fill-rule="evenodd" clip-rule="evenodd" d="M24.99 76H25.01C27.2125 76 29 74.208 29 72C29 69.792 27.2125 68 25.01 68H24.99C22.7875 68 21 69.792 21 72C21 74.208 22.7875 76 24.99 76" fill="#130D3A"/>
<path id="Fill 75" fill-rule="evenodd" clip-rule="evenodd" d="M67 76C68.052 76 69.084 75.574 69.828 74.828C70.574 74.084 71 73.054 71 72C71 70.948 70.574 69.916 69.828 69.172C69.084 68.426 68.052 68 67 68C65.946 68 64.916 68.426 64.17 69.172C63.426 69.916 63 70.948 63 72C63 73.054 63.426 74.084 64.17 74.828C64.916 75.574 65.946 76 67 76" fill="#130D3A"/>
<path id="Fill 77" fill-rule="evenodd" clip-rule="evenodd" d="M89 76C90.054 76 91.084 75.574 91.83 74.828C92.574 74.084 93 73.054 93 72C93 70.948 92.574 69.916 91.83 69.172C91.084 68.426 90.054 68 89 68C87.948 68 86.916 68.426 86.172 69.172C85.426 69.916 85 70.948 85 72C85 73.054 85.426 74.084 86.172 74.828C86.916 75.574 87.948 76 89 76" fill="#130D3A"/>
<path id="Fill 79" fill-rule="evenodd" clip-rule="evenodd" d="M130.99 76H131.01C133.214 76 135 74.208 135 72C135 69.792 133.214 68 131.01 68H130.99C128.788 68 127 69.792 127 72C127 74.208 128.788 76 130.99 76" fill="#130D3A"/>
<path id="Fill 81" fill-rule="evenodd" clip-rule="evenodd" d="M108.99 76H109.01C111.212 76 113 74.208 113 72C113 69.792 111.212 68 109.01 68H108.99C106.788 68 105 69.792 105 72C105 74.208 106.788 76 108.99 76" fill="#130D3A"/>
<g id="Group 85">
<mask id="mask4_0_631" style="mask-type:luminance" maskUnits="userSpaceOnUse" x="147" y="67" width="9" height="9">
<path id="Clip 84" fill-rule="evenodd" clip-rule="evenodd" d="M147.389 67.2847H155.617V75.5132H147.389V67.2847Z" fill="white"/>
</mask>
<g mask="url(#mask4_0_631)">
<path id="Fill 83" fill-rule="evenodd" clip-rule="evenodd" d="M151.503 75.5132C152.585 75.5132 153.647 75.0751 154.412 74.3078C155.179 73.5425 155.617 72.4831 155.617 71.399C155.617 70.3169 155.179 69.2554 154.412 68.4902C153.647 67.7228 152.585 67.2847 151.503 67.2847C150.419 67.2847 149.359 67.7228 148.592 68.4902C147.827 69.2554 147.389 70.3169 147.389 71.399C147.389 72.4831 147.827 73.5425 148.592 74.3078C149.359 75.0751 150.419 75.5132 151.503 75.5132" fill="#130D3A"/>
</g>
</g>
<path id="Fill 86" fill-rule="evenodd" clip-rule="evenodd" d="M4 93C5.052 93 6.084 92.574 6.828 91.83C7.574 91.084 8 90.054 8 89C8 87.948 7.574 86.916 6.828 86.172C6.084 85.426 5.052 85 4 85C2.946 85 1.916 85.426 1.17 86.172C0.426 86.916 0 87.948 0 89C0 90.054 0.426 91.084 1.17 91.83C1.916 92.574 2.946 93 4 93" fill="#130D3A"/>
<path id="Fill 88" fill-rule="evenodd" clip-rule="evenodd" d="M45.99 93H46.01C48.2145 93 50 91.208 50 89C50 86.792 48.2145 85 46.01 85H45.99C43.7875 85 42 86.792 42 89C42 91.208 43.7875 93 45.99 93" fill="#130D3A"/>
<path id="Fill 90" fill-rule="evenodd" clip-rule="evenodd" d="M24.99 93H25.01C27.2125 93 29 91.208 29 89C29 86.792 27.2125 85 25.01 85H24.99C22.7875 85 21 86.792 21 89C21 91.208 22.7875 93 24.99 93" fill="#130D3A"/>
<path id="Fill 92" fill-rule="evenodd" clip-rule="evenodd" d="M67 93C68.052 93 69.084 92.574 69.828 91.83C70.574 91.084 71 90.054 71 89C71 87.948 70.574 86.916 69.828 86.172C69.084 85.426 68.052 85 67 85C65.946 85 64.916 85.426 64.17 86.172C63.426 86.916 63 87.948 63 89C63 90.054 63.426 91.084 64.17 91.83C64.916 92.574 65.946 93 67 93" fill="#130D3A"/>
<path id="Fill 94" fill-rule="evenodd" clip-rule="evenodd" d="M89 93C90.054 93 91.084 92.574 91.83 91.83C92.574 91.084 93 90.054 93 89C93 87.948 92.574 86.916 91.83 86.172C91.084 85.426 90.054 85 89 85C87.948 85 86.916 85.426 86.172 86.172C85.426 86.916 85 87.948 85 89C85 90.054 85.426 91.084 86.172 91.83C86.916 92.574 87.948 93 89 93" fill="#130D3A"/>
<path id="Fill 96" fill-rule="evenodd" clip-rule="evenodd" d="M130.99 93H131.01C133.214 93 135 91.208 135 89C135 86.792 133.214 85 131.01 85H130.99C128.788 85 127 86.792 127 89C127 91.208 128.788 93 130.99 93" fill="#130D3A"/>
<path id="Fill 98" fill-rule="evenodd" clip-rule="evenodd" d="M108.99 93H109.01C111.212 93 113 91.208 113 89C113 86.792 111.212 85 109.01 85H108.99C106.788 85 105 86.792 105 89C105 91.208 106.788 93 108.99 93" fill="#130D3A"/>
<g id="Group 102">
<mask id="mask5_0_631" style="mask-type:luminance" maskUnits="userSpaceOnUse" x="147" y="84" width="9" height="9">
<path id="Clip 101" fill-rule="evenodd" clip-rule="evenodd" d="M147.389 84.7275H155.617V92.9561H147.389V84.7275Z" fill="white"/>
</mask>
<g mask="url(#mask5_0_631)">
<path id="Fill 100" fill-rule="evenodd" clip-rule="evenodd" d="M151.503 92.9561C152.585 92.9561 153.647 92.5179 154.412 91.7527C155.179 90.9854 155.617 89.9259 155.617 88.8418C155.617 87.7598 155.179 86.6983 154.412 85.933C153.647 85.1657 152.585 84.7275 151.503 84.7275C150.419 84.7275 149.359 85.1657 148.592 85.933C147.827 86.6983 147.389 87.7598 147.389 88.8418C147.389 89.9259 147.827 90.9854 148.592 91.7527C149.359 92.5179 150.419 92.9561 151.503 92.9561" fill="#130D3A"/>
</g>
</g>
<path id="Fill 103" fill-rule="evenodd" clip-rule="evenodd" d="M4 109C5.052 109 6.084 108.574 6.828 107.828C7.574 107.084 8 106.054 8 105C8 103.948 7.574 102.916 6.828 102.172C6.084 101.426 5.052 101 4 101C2.946 101 1.916 101.426 1.17 102.172C0.426 102.916 0 103.948 0 105C0 106.054 0.426 107.084 1.17 107.828C1.916 108.574 2.946 109 4 109" fill="#130D3A"/>
<path id="Fill 105" fill-rule="evenodd" clip-rule="evenodd" d="M45.99 109H46.01C48.2145 109 50 107.208 50 105C50 102.792 48.2145 101 46.01 101H45.99C43.7875 101 42 102.792 42 105C42 107.208 43.7875 109 45.99 109" fill="#130D3A"/>
<path id="Fill 107" fill-rule="evenodd" clip-rule="evenodd" d="M24.99 109H25.01C27.2125 109 29 107.208 29 105C29 102.792 27.2125 101 25.01 101H24.99C22.7875 101 21 102.792 21 105C21 107.208 22.7875 109 24.99 109" fill="#130D3A"/>
<path id="Fill 109" fill-rule="evenodd" clip-rule="evenodd" d="M67 109C68.052 109 69.084 108.574 69.828 107.828C70.574 107.084 71 106.054 71 105C71 103.948 70.574 102.916 69.828 102.172C69.084 101.426 68.052 101 67 101C65.946 101 64.916 101.426 64.17 102.172C63.426 102.916 63 103.948 63 105C63 106.054 63.426 107.084 64.17 107.828C64.916 108.574 65.946 109 67 109" fill="#130D3A"/>
<path id="Fill 111" fill-rule="evenodd" clip-rule="evenodd" d="M89 109C90.054 109 91.084 108.574 91.83 107.828C92.574 107.084 93 106.054 93 105C93 103.948 92.574 102.916 91.83 102.172C91.084 101.426 90.054 101 89 101C87.948 101 86.916 101.426 86.172 102.172C85.426 102.916 85 103.948 85 105C85 106.054 85.426 107.084 86.172 107.828C86.916 108.574 87.948 109 89 109" fill="#130D3A"/>
<path id="Fill 113" fill-rule="evenodd" clip-rule="evenodd" d="M130.99 109H131.01C133.214 109 135 107.208 135 105C135 102.792 133.214 101 131.01 101H130.99C128.788 101 127 102.792 127 105C127 107.208 128.788 109 130.99 109" fill="#130D3A"/>
<path id="Fill 115" fill-rule="evenodd" clip-rule="evenodd" d="M108.99 109H109.01C111.212 109 113 107.208 113 105C113 102.792 111.212 101 109.01 101H108.99C106.788 101 105 102.792 105 105C105 107.208 106.788 109 108.99 109" fill="#130D3A"/>
<g id="Group 119">
<mask id="mask6_0_631" style="mask-type:luminance" maskUnits="userSpaceOnUse" x="147" y="101" width="9" height="9">
<path id="Clip 118" fill-rule="evenodd" clip-rule="evenodd" d="M147.389 101.138H155.617V109.138H147.389V101.138Z" fill="white"/>
</mask>
<g mask="url(#mask6_0_631)">
<path id="Fill 117" fill-rule="evenodd" clip-rule="evenodd" d="M151.503 109.138C152.585 109.138 153.647 108.712 154.412 107.966C155.179 107.222 155.617 106.192 155.617 105.138C155.617 104.086 155.179 103.054 154.412 102.31C153.647 101.564 152.585 101.138 151.503 101.138C150.419 101.138 149.359 101.564 148.592 102.31C147.827 103.054 147.389 104.086 147.389 105.138C147.389 106.192 147.827 107.222 148.592 107.966C149.359 108.712 150.419 109.138 151.503 109.138" fill="#130D3A"/>
</g>
</g>
<path id="Fill 120" fill-rule="evenodd" clip-rule="evenodd" d="M4 126C5.052 126 6.084 125.574 6.828 124.83C7.574 124.084 8 123.054 8 122C8 120.948 7.574 119.916 6.828 119.172C6.084 118.426 5.052 118 4 118C2.946 118 1.916 118.426 1.17 119.172C0.426 119.916 0 120.948 0 122C0 123.054 0.426 124.084 1.17 124.83C1.916 125.574 2.946 126 4 126" fill="#130D3A"/>
<path id="Fill 122" fill-rule="evenodd" clip-rule="evenodd" d="M45.99 126H46.01C48.2145 126 50 124.21 50 122C50 119.792 48.2145 118 46.01 118H45.99C43.7875 118 42 119.792 42 122C42 124.21 43.7875 126 45.99 126" fill="#130D3A"/>
<path id="Fill 124" fill-rule="evenodd" clip-rule="evenodd" d="M24.99 126H25.01C27.2125 126 29 124.21 29 122C29 119.792 27.2125 118 25.01 118H24.99C22.7875 118 21 119.792 21 122C21 124.21 22.7875 126 24.99 126" fill="#130D3A"/>
<path id="Fill 126" fill-rule="evenodd" clip-rule="evenodd" d="M67 126C68.052 126 69.084 125.574 69.828 124.83C70.574 124.084 71 123.054 71 122C71 120.948 70.574 119.916 69.828 119.172C69.084 118.426 68.052 118 67 118C65.946 118 64.916 118.426 64.17 119.172C63.426 119.916 63 120.948 63 122C63 123.054 63.426 124.084 64.17 124.83C64.916 125.574 65.946 126 67 126" fill="#130D3A"/>
<path id="Fill 128" fill-rule="evenodd" clip-rule="evenodd" d="M89 126C90.054 126 91.084 125.574 91.83 124.83C92.574 124.084 93 123.054 93 122C93 120.948 92.574 119.916 91.83 119.172C91.084 118.426 90.054 118 89 118C87.948 118 86.916 118.426 86.172 119.172C85.426 119.916 85 120.948 85 122C85 123.054 85.426 124.084 86.172 124.83C86.916 125.574 87.948 126 89 126" fill="#130D3A"/>
<path id="Fill 130" fill-rule="evenodd" clip-rule="evenodd" d="M130.99 126H131.01C133.214 126 135 124.21 135 122C135 119.792 133.214 118 131.01 118H130.99C128.788 118 127 119.792 127 122C127 124.21 128.788 126 130.99 126" fill="#130D3A"/>
<path id="Fill 132" fill-rule="evenodd" clip-rule="evenodd" d="M108.99 126H109.01C111.212 126 113 124.21 113 122C113 119.792 111.212 118 109.01 118H108.99C106.788 118 105 119.792 105 122C105 124.21 106.788 126 108.99 126" fill="#130D3A"/>
<g id="Group 136">
<mask id="mask7_0_631" style="mask-type:luminance" maskUnits="userSpaceOnUse" x="147" y="118" width="9" height="9">
<path id="Clip 135" fill-rule="evenodd" clip-rule="evenodd" d="M147.389 118.328H155.617V126.556H147.389V118.328Z" fill="white"/>
</mask>
<g mask="url(#mask7_0_631)">
<path id="Fill 134" fill-rule="evenodd" clip-rule="evenodd" d="M151.503 126.556C152.585 126.556 153.647 126.118 154.412 125.353C155.179 124.586 155.617 123.526 155.617 122.442C155.617 121.36 155.179 120.299 154.412 119.533C153.647 118.766 152.585 118.328 151.503 118.328C150.419 118.328 149.359 118.766 148.592 119.533C147.827 120.299 147.389 121.36 147.389 122.442C147.389 123.526 147.827 124.586 148.592 125.353C149.359 126.118 150.419 126.556 151.503 126.556" fill="#130D3A"/>
</g>
</g>
<g id="Group 139">
<mask id="mask8_0_631" style="mask-type:luminance" maskUnits="userSpaceOnUse" x="0" y="134" width="8" height="8">
<path id="Clip 138" fill-rule="evenodd" clip-rule="evenodd" d="M0 134H8V142H0V134Z" fill="white"/>
</mask>
<g mask="url(#mask8_0_631)">
<path id="Fill 137" fill-rule="evenodd" clip-rule="evenodd" d="M4 142C5.052 142 6.084 141.574 6.828 140.828C7.574 140.084 8 139.052 8 138C8 136.946 7.574 135.916 6.828 135.17C6.084 134.426 5.052 134 4 134C2.946 134 1.916 134.426 1.17 135.17C0.426 135.916 0 136.946 0 138C0 139.052 0.426 140.084 1.17 140.828C1.916 141.574 2.946 142 4 142" fill="#130D3A"/>
</g>
</g>
<g id="Group 142">
<mask id="mask9_0_631" style="mask-type:luminance" maskUnits="userSpaceOnUse" x="42" y="134" width="9" height="8">
<path id="Clip 141" fill-rule="evenodd" clip-rule="evenodd" d="M42.2402 134H50.2602V142H42.2402V134Z" fill="white"/>
</mask>
<g mask="url(#mask9_0_631)">
<path id="Fill 140" fill-rule="evenodd" clip-rule="evenodd" d="M46.2402 142H46.2602C48.4702 142 50.2602 140.208 50.2602 138C50.2602 135.79 48.4702 134 46.2602 134H46.2402C44.0322 134 42.2402 135.79 42.2402 138C42.2402 140.208 44.0322 142 46.2402 142" fill="#130D3A"/>
</g>
</g>
<g id="Group 145">
<mask id="mask10_0_631" style="mask-type:luminance" maskUnits="userSpaceOnUse" x="20" y="134" width="9" height="8">
<path id="Clip 144" fill-rule="evenodd" clip-rule="evenodd" d="M20.6328 134H28.882V142H20.6328V134Z" fill="white"/>
</mask>
<g mask="url(#mask10_0_631)">
<path id="Fill 143" fill-rule="evenodd" clip-rule="evenodd" d="M24.7471 142H24.7677C27.0388 142 28.882 140.208 28.882 138C28.882 135.79 27.0388 134 24.7677 134H24.7471C22.476 134 20.6328 135.79 20.6328 138C20.6328 140.208 22.476 142 24.7471 142" fill="#130D3A"/>
</g>
</g>
<g id="Group 148">
<mask id="mask11_0_631" style="mask-type:luminance" maskUnits="userSpaceOnUse" x="62" y="134" width="9" height="8">
<path id="Clip 147" fill-rule="evenodd" clip-rule="evenodd" d="M62.6445 134H70.8731V142H62.6445V134Z" fill="white"/>
</mask>
<g mask="url(#mask11_0_631)">
<path id="Fill 146" fill-rule="evenodd" clip-rule="evenodd" d="M66.7588 142C67.8409 142 68.9024 141.574 69.6676 140.828C70.4349 140.084 70.8731 139.052 70.8731 138C70.8731 136.946 70.4349 135.916 69.6676 135.17C68.9024 134.426 67.8409 134 66.7588 134C65.6747 134 64.6153 134.426 63.848 135.17C63.0827 135.916 62.6445 136.946 62.6445 138C62.6445 139.052 63.0827 140.084 63.848 140.828C64.6153 141.574 65.6747 142 66.7588 142" fill="#130D3A"/>
</g>
</g>
<g id="Group 151">
<mask id="mask12_0_631" style="mask-type:luminance" maskUnits="userSpaceOnUse" x="84" y="134" width="9" height="8">
<path id="Clip 150" fill-rule="evenodd" clip-rule="evenodd" d="M84.5156 134H92.7442V142H84.5156V134Z" fill="white"/>
</mask>
<g mask="url(#mask12_0_631)">
<path id="Fill 149" fill-rule="evenodd" clip-rule="evenodd" d="M88.6299 142C89.714 142 90.7735 141.574 91.5408 140.828C92.306 140.084 92.7442 139.052 92.7442 138C92.7442 136.946 92.306 135.916 91.5408 135.17C90.7735 134.426 89.714 134 88.6299 134C87.5479 134 86.4864 134.426 85.7211 135.17C84.9538 135.916 84.5156 136.946 84.5156 138C84.5156 139.052 84.9538 140.084 85.7211 140.828C86.4864 141.574 87.5479 142 88.6299 142" fill="#130D3A"/>
</g>
</g>
<g id="Group 154">
<mask id="mask13_0_631" style="mask-type:luminance" maskUnits="userSpaceOnUse" x="126" y="134" width="9" height="8">
<path id="Clip 153" fill-rule="evenodd" clip-rule="evenodd" d="M126.506 134H134.755V142H126.506V134Z" fill="white"/>
</mask>
<g mask="url(#mask13_0_631)">
<path id="Fill 152" fill-rule="evenodd" clip-rule="evenodd" d="M130.62 142H130.641C132.914 142 134.755 140.208 134.755 138C134.755 135.79 132.914 134 130.641 134H130.62C128.349 134 126.506 135.79 126.506 138C126.506 140.208 128.349 142 130.62 142" fill="#130D3A"/>
</g>
</g>
<g id="Group 157">
<mask id="mask14_0_631" style="mask-type:luminance" maskUnits="userSpaceOnUse" x="105" y="134" width="9" height="8">
<path id="Clip 156" fill-rule="evenodd" clip-rule="evenodd" d="M105.117 134H113.137V142H105.117V134Z" fill="white"/>
</mask>
<g mask="url(#mask14_0_631)">
<path id="Fill 155" fill-rule="evenodd" clip-rule="evenodd" d="M109.117 142H109.137C111.345 142 113.137 140.208 113.137 138C113.137 135.79 111.345 134 109.137 134H109.117C106.909 134 105.117 135.79 105.117 138C105.117 140.208 106.909 142 109.117 142" fill="#130D3A"/>
</g>
</g>
<g id="Group 160">
<mask id="mask15_0_631" style="mask-type:luminance" maskUnits="userSpaceOnUse" x="147" y="134" width="9" height="8">
<path id="Clip 159" fill-rule="evenodd" clip-rule="evenodd" d="M147.389 134H155.617V142H147.389V134Z" fill="white"/>
</mask>
<g mask="url(#mask15_0_631)">
<path id="Fill 158" fill-rule="evenodd" clip-rule="evenodd" d="M151.503 142C152.585 142 153.647 141.574 154.412 140.828C155.179 140.084 155.617 139.052 155.617 138C155.617 136.946 155.179 135.916 154.412 135.17C153.647 134.426 152.585 134 151.503 134C150.419 134 149.359 134.426 148.592 135.17C147.827 135.916 147.389 136.946 147.389 138C147.389 139.052 147.827 140.084 148.592 140.828C149.359 141.574 150.419 142 151.503 142" fill="#130D3A"/>
</g>
</g>
</g>
</svg>
