<svg width="172" height="81" viewBox="0 0 172 81" fill="none" xmlns="http://www.w3.org/2000/svg">
<g id="Group 101">
<path id="Stroke 1" fill-rule="evenodd" clip-rule="evenodd" d="M7.85938 4.72656C7.85938 6.65969 6.29148 8.22656 4.36004 8.22656C2.42727 8.22656 0.859375 6.65969 0.859375 4.72656C0.859375 2.79343 2.42727 1.22656 4.36004 1.22656C6.29148 1.22656 7.85938 2.79343 7.85938 4.72656Z" stroke="#68D585"/>
<path id="Stroke 3" fill-rule="evenodd" clip-rule="evenodd" d="M26.8594 4.72656C26.8594 6.65969 25.2915 8.22656 23.36 8.22656C21.4273 8.22656 19.8594 6.65969 19.8594 4.72656C19.8594 2.79343 21.4273 1.22656 23.36 1.22656C25.2915 1.22656 26.8594 2.79343 26.8594 4.72656Z" stroke="#68D585"/>
<path id="Stroke 5" fill-rule="evenodd" clip-rule="evenodd" d="M44.8594 4.72656C44.8594 6.65969 43.2915 8.22656 41.36 8.22656C39.4273 8.22656 37.8594 6.65969 37.8594 4.72656C37.8594 2.79343 39.4273 1.22656 41.36 1.22656C43.2915 1.22656 44.8594 2.79343 44.8594 4.72656Z" stroke="#68D585"/>
<path id="Stroke 7" fill-rule="evenodd" clip-rule="evenodd" d="M62.8594 4.72656C62.8594 6.65969 61.2928 8.22656 59.36 8.22656C57.4273 8.22656 55.8594 6.65969 55.8594 4.72656C55.8594 2.79343 57.4273 1.22656 59.36 1.22656C61.2928 1.22656 62.8594 2.79343 62.8594 4.72656Z" stroke="#68D585"/>
<path id="Stroke 9" fill-rule="evenodd" clip-rule="evenodd" d="M80.8594 4.72656C80.8594 6.65969 79.2925 8.22656 77.3594 8.22656C75.4262 8.22656 73.8594 6.65969 73.8594 4.72656C73.8594 2.79343 75.4262 1.22656 77.3594 1.22656C79.2925 1.22656 80.8594 2.79343 80.8594 4.72656Z" stroke="#68D585"/>
<path id="Stroke 11" fill-rule="evenodd" clip-rule="evenodd" d="M98.8594 4.72656C98.8594 6.65969 97.2925 8.22656 95.3594 8.22656C93.4262 8.22656 91.8594 6.65969 91.8594 4.72656C91.8594 2.79343 93.4262 1.22656 95.3594 1.22656C97.2925 1.22656 98.8594 2.79343 98.8594 4.72656Z" stroke="#68D585"/>
<path id="Stroke 13" fill-rule="evenodd" clip-rule="evenodd" d="M116.859 4.72656C116.859 6.65969 115.293 8.22656 113.361 8.22656C111.426 8.22656 109.859 6.65969 109.859 4.72656C109.859 2.79343 111.426 1.22656 113.361 1.22656C115.293 1.22656 116.859 2.79343 116.859 4.72656Z" stroke="#68D585"/>
<path id="Stroke 15" fill-rule="evenodd" clip-rule="evenodd" d="M134.859 4.72656C134.859 6.65969 133.291 8.22656 131.36 8.22656C129.426 8.22656 127.859 6.65969 127.859 4.72656C127.859 2.79343 129.426 1.22656 131.36 1.22656C133.291 1.22656 134.859 2.79343 134.859 4.72656Z" stroke="#68D585"/>
<path id="Stroke 17" fill-rule="evenodd" clip-rule="evenodd" d="M152.859 4.72656C152.859 6.65969 151.291 8.22656 149.36 8.22656C147.427 8.22656 145.859 6.65969 145.859 4.72656C145.859 2.79343 147.427 1.22656 149.36 1.22656C151.291 1.22656 152.859 2.79343 152.859 4.72656Z" stroke="#68D585"/>
<path id="Stroke 19" fill-rule="evenodd" clip-rule="evenodd" d="M170.859 4.72656C170.859 6.65969 169.291 8.22656 167.36 8.22656C165.427 8.22656 163.859 6.65969 163.859 4.72656C163.859 2.79343 165.427 1.22656 167.36 1.22656C169.291 1.22656 170.859 2.79343 170.859 4.72656Z" stroke="#68D585"/>
<path id="Stroke 21" fill-rule="evenodd" clip-rule="evenodd" d="M7.85938 22.7266C7.85938 24.6597 6.29148 26.2266 4.36004 26.2266C2.42727 26.2266 0.859375 24.6597 0.859375 22.7266C0.859375 20.7934 2.42727 19.2266 4.36004 19.2266C6.29148 19.2266 7.85938 20.7934 7.85938 22.7266Z" stroke="#68D585"/>
<path id="Stroke 23" fill-rule="evenodd" clip-rule="evenodd" d="M26.8594 22.7266C26.8594 24.6597 25.2915 26.2266 23.36 26.2266C21.4273 26.2266 19.8594 24.6597 19.8594 22.7266C19.8594 20.7934 21.4273 19.2266 23.36 19.2266C25.2915 19.2266 26.8594 20.7934 26.8594 22.7266Z" stroke="#68D585"/>
<path id="Stroke 25" fill-rule="evenodd" clip-rule="evenodd" d="M44.8594 22.7266C44.8594 24.6597 43.2915 26.2266 41.36 26.2266C39.4273 26.2266 37.8594 24.6597 37.8594 22.7266C37.8594 20.7934 39.4273 19.2266 41.36 19.2266C43.2915 19.2266 44.8594 20.7934 44.8594 22.7266Z" stroke="#68D585"/>
<path id="Stroke 27" fill-rule="evenodd" clip-rule="evenodd" d="M62.8594 22.7266C62.8594 24.6597 61.2928 26.2266 59.36 26.2266C57.4273 26.2266 55.8594 24.6597 55.8594 22.7266C55.8594 20.7934 57.4273 19.2266 59.36 19.2266C61.2928 19.2266 62.8594 20.7934 62.8594 22.7266Z" stroke="#68D585"/>
<path id="Stroke 29" fill-rule="evenodd" clip-rule="evenodd" d="M80.8594 22.7266C80.8594 24.6597 79.2925 26.2266 77.3594 26.2266C75.4262 26.2266 73.8594 24.6597 73.8594 22.7266C73.8594 20.7934 75.4262 19.2266 77.3594 19.2266C79.2925 19.2266 80.8594 20.7934 80.8594 22.7266Z" stroke="#68D585"/>
<path id="Stroke 31" fill-rule="evenodd" clip-rule="evenodd" d="M98.8594 22.7266C98.8594 24.6597 97.2925 26.2266 95.3594 26.2266C93.4262 26.2266 91.8594 24.6597 91.8594 22.7266C91.8594 20.7934 93.4262 19.2266 95.3594 19.2266C97.2925 19.2266 98.8594 20.7934 98.8594 22.7266Z" stroke="#68D585"/>
<path id="Stroke 33" fill-rule="evenodd" clip-rule="evenodd" d="M116.859 22.7266C116.859 24.6597 115.293 26.2266 113.361 26.2266C111.426 26.2266 109.859 24.6597 109.859 22.7266C109.859 20.7934 111.426 19.2266 113.361 19.2266C115.293 19.2266 116.859 20.7934 116.859 22.7266Z" stroke="#68D585"/>
<path id="Stroke 35" fill-rule="evenodd" clip-rule="evenodd" d="M134.859 22.7266C134.859 24.6597 133.291 26.2266 131.36 26.2266C129.426 26.2266 127.859 24.6597 127.859 22.7266C127.859 20.7934 129.426 19.2266 131.36 19.2266C133.291 19.2266 134.859 20.7934 134.859 22.7266Z" stroke="#68D585"/>
<path id="Stroke 37" fill-rule="evenodd" clip-rule="evenodd" d="M152.859 22.7266C152.859 24.6597 151.291 26.2266 149.36 26.2266C147.427 26.2266 145.859 24.6597 145.859 22.7266C145.859 20.7934 147.427 19.2266 149.36 19.2266C151.291 19.2266 152.859 20.7934 152.859 22.7266Z" stroke="#68D585"/>
<path id="Stroke 39" fill-rule="evenodd" clip-rule="evenodd" d="M170.859 22.7266C170.859 24.6597 169.291 26.2266 167.36 26.2266C165.427 26.2266 163.859 24.6597 163.859 22.7266C163.859 20.7934 165.427 19.2266 167.36 19.2266C169.291 19.2266 170.859 20.7934 170.859 22.7266Z" stroke="#68D585"/>
<path id="Stroke 41" fill-rule="evenodd" clip-rule="evenodd" d="M7.85938 40.7266C7.85938 42.6597 6.29148 44.2266 4.36004 44.2266C2.42727 44.2266 0.859375 42.6597 0.859375 40.7266C0.859375 38.7934 2.42727 37.2266 4.36004 37.2266C6.29148 37.2266 7.85938 38.7934 7.85938 40.7266Z" stroke="#68D585"/>
<path id="Stroke 43" fill-rule="evenodd" clip-rule="evenodd" d="M26.8594 40.7266C26.8594 42.6597 25.2915 44.2266 23.36 44.2266C21.4273 44.2266 19.8594 42.6597 19.8594 40.7266C19.8594 38.7934 21.4273 37.2266 23.36 37.2266C25.2915 37.2266 26.8594 38.7934 26.8594 40.7266Z" stroke="#68D585"/>
<path id="Stroke 45" fill-rule="evenodd" clip-rule="evenodd" d="M44.8594 40.7266C44.8594 42.6597 43.2915 44.2266 41.36 44.2266C39.4273 44.2266 37.8594 42.6597 37.8594 40.7266C37.8594 38.7934 39.4273 37.2266 41.36 37.2266C43.2915 37.2266 44.8594 38.7934 44.8594 40.7266Z" stroke="#68D585"/>
<path id="Stroke 47" fill-rule="evenodd" clip-rule="evenodd" d="M62.8594 40.7266C62.8594 42.6597 61.2928 44.2266 59.36 44.2266C57.4273 44.2266 55.8594 42.6597 55.8594 40.7266C55.8594 38.7934 57.4273 37.2266 59.36 37.2266C61.2928 37.2266 62.8594 38.7934 62.8594 40.7266Z" stroke="#68D585"/>
<path id="Stroke 49" fill-rule="evenodd" clip-rule="evenodd" d="M80.8594 40.7266C80.8594 42.6597 79.2925 44.2266 77.3594 44.2266C75.4262 44.2266 73.8594 42.6597 73.8594 40.7266C73.8594 38.7934 75.4262 37.2266 77.3594 37.2266C79.2925 37.2266 80.8594 38.7934 80.8594 40.7266Z" stroke="#68D585"/>
<path id="Stroke 51" fill-rule="evenodd" clip-rule="evenodd" d="M98.8594 40.7266C98.8594 42.6597 97.2925 44.2266 95.3594 44.2266C93.4262 44.2266 91.8594 42.6597 91.8594 40.7266C91.8594 38.7934 93.4262 37.2266 95.3594 37.2266C97.2925 37.2266 98.8594 38.7934 98.8594 40.7266Z" stroke="#68D585"/>
<path id="Stroke 53" fill-rule="evenodd" clip-rule="evenodd" d="M116.859 40.7266C116.859 42.6597 115.293 44.2266 113.361 44.2266C111.426 44.2266 109.859 42.6597 109.859 40.7266C109.859 38.7934 111.426 37.2266 113.361 37.2266C115.293 37.2266 116.859 38.7934 116.859 40.7266Z" stroke="#68D585"/>
<path id="Stroke 55" fill-rule="evenodd" clip-rule="evenodd" d="M134.859 40.7266C134.859 42.6597 133.291 44.2266 131.36 44.2266C129.426 44.2266 127.859 42.6597 127.859 40.7266C127.859 38.7934 129.426 37.2266 131.36 37.2266C133.291 37.2266 134.859 38.7934 134.859 40.7266Z" stroke="#68D585"/>
<path id="Stroke 57" fill-rule="evenodd" clip-rule="evenodd" d="M152.859 40.7266C152.859 42.6597 151.291 44.2266 149.36 44.2266C147.427 44.2266 145.859 42.6597 145.859 40.7266C145.859 38.7934 147.427 37.2266 149.36 37.2266C151.291 37.2266 152.859 38.7934 152.859 40.7266Z" stroke="#68D585"/>
<path id="Stroke 59" fill-rule="evenodd" clip-rule="evenodd" d="M170.859 40.7266C170.859 42.6597 169.291 44.2266 167.36 44.2266C165.427 44.2266 163.859 42.6597 163.859 40.7266C163.859 38.7934 165.427 37.2266 167.36 37.2266C169.291 37.2266 170.859 38.7934 170.859 40.7266Z" stroke="#68D585"/>
<path id="Stroke 61" fill-rule="evenodd" clip-rule="evenodd" d="M7.85938 58.7266C7.85938 60.6597 6.29148 62.2266 4.36004 62.2266C2.42727 62.2266 0.859375 60.6597 0.859375 58.7266C0.859375 56.7934 2.42727 55.2266 4.36004 55.2266C6.29148 55.2266 7.85938 56.7934 7.85938 58.7266Z" stroke="#68D585"/>
<path id="Stroke 63" fill-rule="evenodd" clip-rule="evenodd" d="M26.8594 58.7266C26.8594 60.6597 25.2915 62.2266 23.36 62.2266C21.4273 62.2266 19.8594 60.6597 19.8594 58.7266C19.8594 56.7934 21.4273 55.2266 23.36 55.2266C25.2915 55.2266 26.8594 56.7934 26.8594 58.7266Z" stroke="#68D585"/>
<path id="Stroke 65" fill-rule="evenodd" clip-rule="evenodd" d="M44.8594 58.7266C44.8594 60.6597 43.2915 62.2266 41.36 62.2266C39.4273 62.2266 37.8594 60.6597 37.8594 58.7266C37.8594 56.7934 39.4273 55.2266 41.36 55.2266C43.2915 55.2266 44.8594 56.7934 44.8594 58.7266Z" stroke="#68D585"/>
<path id="Stroke 67" fill-rule="evenodd" clip-rule="evenodd" d="M62.8594 58.7266C62.8594 60.6597 61.2928 62.2266 59.36 62.2266C57.4273 62.2266 55.8594 60.6597 55.8594 58.7266C55.8594 56.7934 57.4273 55.2266 59.36 55.2266C61.2928 55.2266 62.8594 56.7934 62.8594 58.7266Z" stroke="#68D585"/>
<path id="Stroke 69" fill-rule="evenodd" clip-rule="evenodd" d="M80.8594 58.7266C80.8594 60.6597 79.2925 62.2266 77.3594 62.2266C75.4262 62.2266 73.8594 60.6597 73.8594 58.7266C73.8594 56.7934 75.4262 55.2266 77.3594 55.2266C79.2925 55.2266 80.8594 56.7934 80.8594 58.7266Z" stroke="#68D585"/>
<path id="Stroke 71" fill-rule="evenodd" clip-rule="evenodd" d="M98.8594 58.7266C98.8594 60.6597 97.2925 62.2266 95.3594 62.2266C93.4262 62.2266 91.8594 60.6597 91.8594 58.7266C91.8594 56.7934 93.4262 55.2266 95.3594 55.2266C97.2925 55.2266 98.8594 56.7934 98.8594 58.7266Z" stroke="#68D585"/>
<path id="Stroke 73" fill-rule="evenodd" clip-rule="evenodd" d="M116.859 58.7266C116.859 60.6597 115.293 62.2266 113.361 62.2266C111.426 62.2266 109.859 60.6597 109.859 58.7266C109.859 56.7934 111.426 55.2266 113.361 55.2266C115.293 55.2266 116.859 56.7934 116.859 58.7266Z" stroke="#68D585"/>
<path id="Stroke 75" fill-rule="evenodd" clip-rule="evenodd" d="M134.859 58.7266C134.859 60.6597 133.291 62.2266 131.36 62.2266C129.426 62.2266 127.859 60.6597 127.859 58.7266C127.859 56.7934 129.426 55.2266 131.36 55.2266C133.291 55.2266 134.859 56.7934 134.859 58.7266Z" stroke="#68D585"/>
<path id="Stroke 77" fill-rule="evenodd" clip-rule="evenodd" d="M152.859 58.7266C152.859 60.6597 151.291 62.2266 149.36 62.2266C147.427 62.2266 145.859 60.6597 145.859 58.7266C145.859 56.7934 147.427 55.2266 149.36 55.2266C151.291 55.2266 152.859 56.7934 152.859 58.7266Z" stroke="#68D585"/>
<path id="Stroke 79" fill-rule="evenodd" clip-rule="evenodd" d="M170.859 58.7266C170.859 60.6597 169.291 62.2266 167.36 62.2266C165.427 62.2266 163.859 60.6597 163.859 58.7266C163.859 56.7934 165.427 55.2266 167.36 55.2266C169.291 55.2266 170.859 56.7934 170.859 58.7266Z" stroke="#68D585"/>
<path id="Stroke 81" fill-rule="evenodd" clip-rule="evenodd" d="M7.85938 76.7266C7.85938 78.6597 6.29148 80.2266 4.36004 80.2266C2.42727 80.2266 0.859375 78.6597 0.859375 76.7266C0.859375 74.7934 2.42727 73.2266 4.36004 73.2266C6.29148 73.2266 7.85938 74.7934 7.85938 76.7266Z" stroke="#68D585"/>
<path id="Stroke 83" fill-rule="evenodd" clip-rule="evenodd" d="M26.8594 76.7266C26.8594 78.6597 25.2915 80.2266 23.36 80.2266C21.4273 80.2266 19.8594 78.6597 19.8594 76.7266C19.8594 74.7934 21.4273 73.2266 23.36 73.2266C25.2915 73.2266 26.8594 74.7934 26.8594 76.7266Z" stroke="#68D585"/>
<path id="Stroke 85" fill-rule="evenodd" clip-rule="evenodd" d="M44.8594 76.7266C44.8594 78.6597 43.2915 80.2266 41.36 80.2266C39.4273 80.2266 37.8594 78.6597 37.8594 76.7266C37.8594 74.7934 39.4273 73.2266 41.36 73.2266C43.2915 73.2266 44.8594 74.7934 44.8594 76.7266Z" stroke="#68D585"/>
<path id="Stroke 87" fill-rule="evenodd" clip-rule="evenodd" d="M62.8594 76.7266C62.8594 78.6597 61.2928 80.2266 59.36 80.2266C57.4273 80.2266 55.8594 78.6597 55.8594 76.7266C55.8594 74.7934 57.4273 73.2266 59.36 73.2266C61.2928 73.2266 62.8594 74.7934 62.8594 76.7266Z" stroke="#68D585"/>
<path id="Stroke 89" fill-rule="evenodd" clip-rule="evenodd" d="M80.8594 76.7266C80.8594 78.6597 79.2925 80.2266 77.3594 80.2266C75.4262 80.2266 73.8594 78.6597 73.8594 76.7266C73.8594 74.7934 75.4262 73.2266 77.3594 73.2266C79.2925 73.2266 80.8594 74.7934 80.8594 76.7266Z" stroke="#68D585"/>
<path id="Stroke 91" fill-rule="evenodd" clip-rule="evenodd" d="M98.8594 76.7266C98.8594 78.6597 97.2925 80.2266 95.3594 80.2266C93.4262 80.2266 91.8594 78.6597 91.8594 76.7266C91.8594 74.7934 93.4262 73.2266 95.3594 73.2266C97.2925 73.2266 98.8594 74.7934 98.8594 76.7266Z" stroke="#68D585"/>
<path id="Stroke 93" fill-rule="evenodd" clip-rule="evenodd" d="M116.859 76.7266C116.859 78.6597 115.293 80.2266 113.361 80.2266C111.426 80.2266 109.859 78.6597 109.859 76.7266C109.859 74.7934 111.426 73.2266 113.361 73.2266C115.293 73.2266 116.859 74.7934 116.859 76.7266Z" stroke="#68D585"/>
<path id="Stroke 95" fill-rule="evenodd" clip-rule="evenodd" d="M134.859 76.7266C134.859 78.6597 133.291 80.2266 131.36 80.2266C129.426 80.2266 127.859 78.6597 127.859 76.7266C127.859 74.7934 129.426 73.2266 131.36 73.2266C133.291 73.2266 134.859 74.7934 134.859 76.7266Z" stroke="#68D585"/>
<path id="Stroke 97" fill-rule="evenodd" clip-rule="evenodd" d="M152.859 76.7266C152.859 78.6597 151.291 80.2266 149.36 80.2266C147.427 80.2266 145.859 78.6597 145.859 76.7266C145.859 74.7934 147.427 73.2266 149.36 73.2266C151.291 73.2266 152.859 74.7934 152.859 76.7266Z" stroke="#68D585"/>
<path id="Stroke 99" fill-rule="evenodd" clip-rule="evenodd" d="M170.859 76.7266C170.859 78.6597 169.291 80.2266 167.36 80.2266C165.427 80.2266 163.859 78.6597 163.859 76.7266C163.859 74.7934 165.427 73.2266 167.36 73.2266C169.291 73.2266 170.859 74.7934 170.859 76.7266Z" stroke="#68D585"/>
</g>
</svg>
