<svg width="41" height="42" viewBox="0 0 41 42" fill="none" xmlns="http://www.w3.org/2000/svg">
<g id="opening-times">
<path id="Path" opacity="0.4" d="M9.8428 7.56757C9.24574 7.56757 8.76172 7.19111 8.76172 6.72673V0.840841C8.76172 0.376457 9.24574 0 9.8428 0C10.4399 0 10.9239 0.376457 10.9239 0.840841V6.72673C10.9239 7.19111 10.4399 7.56757 9.8428 7.56757Z" fill="#68D585"/>
<path id="Path_2" opacity="0.4" d="M29.3018 7.56757C28.7047 7.56757 28.2207 7.19111 28.2207 6.72673V0.840841C28.2207 0.376457 28.7047 0 29.3018 0C29.8988 0 30.3829 0.376457 30.3829 0.840841V6.72673C30.3829 7.19111 29.8988 7.56757 29.3018 7.56757Z" fill="#68D585"/>
<path id="Path_3" opacity="0.4" d="M22.6022 36.0739H2.76684C2.27834 36.0739 1.88232 35.679 1.88232 35.1919V14.9074C1.88232 14.4204 2.27834 14.0255 2.76684 14.0255H36.3786C36.8671 14.0255 37.2632 14.4204 37.2632 14.9074V25.3028C37.9094 25.725 38.5032 26.222 39.0322 26.7836V6.08809C39.0322 5.11393 38.2402 4.32422 37.2632 4.32422H31.956V7.85196C31.956 9.31319 30.768 10.4978 29.3025 10.4978C27.8369 10.4978 26.6489 9.31319 26.6489 7.85196V4.32422H12.4966V7.85196C12.4966 9.31319 11.3085 10.4978 9.84301 10.4978C8.37749 10.4978 7.18945 9.31319 7.18945 7.85196V4.32422H1.88232C0.905308 4.32422 0.113281 5.11393 0.113281 6.08809V36.0739C0.113281 37.048 0.905308 37.8377 1.88232 37.8377H23.2966C23.0074 37.274 22.7748 36.6832 22.6022 36.0739Z" fill="#68D585"/>
<path id="Shape" fill-rule="evenodd" clip-rule="evenodd" d="M40.1127 32.9729C40.1127 37.4508 36.4826 41.081 32.0046 41.081C27.5266 41.081 23.8965 37.4508 23.8965 32.9729C23.8965 28.4949 27.5266 24.8647 32.0046 24.8647C36.4826 24.8647 40.1127 28.4949 40.1127 32.9729ZM32.0046 27.5674C31.507 27.5674 31.1037 27.9708 31.1037 28.4683V32.9729C31.1037 33.4704 31.507 33.8738 32.0046 33.8738H36.5091C37.0067 33.8738 37.41 33.4704 37.41 32.9729C37.41 32.4753 37.0067 32.072 36.5091 32.072H32.9055V28.4683C32.9055 27.9708 32.5021 27.5674 32.0046 27.5674Z" fill="#68D585"/>
</g>
</svg>
