<svg width="48" height="32" viewBox="0 0 48 32" fill="none" xmlns="http://www.w3.org/2000/svg">
<g id="roadmap">
<path id="Path" opacity="0.4" d="M46.9377 20.427L40.1435 10.427C39.962 10.1596 39.6653 10.0002 39.3486 10H35.4663V18C35.4663 20.7614 33.2935 23 30.6133 23H14.1133V29C14.1133 30.6569 15.4169 32 17.0251 32H39.3486C39.6657 32.0001 39.9628 31.8407 40.1445 31.573L46.9386 21.573C47.1719 21.2287 47.1715 20.7709 46.9377 20.427Z" fill="#68D585"/>
<path id="Path_2" d="M30.2015 22H7.87757C7.56103 22 7.26435 21.8411 7.08265 21.574L0.288422 11.574C0.0549011 11.2299 0.0549011 10.7721 0.288422 10.428L7.08265 0.428C7.26392 0.160186 7.56067 0.000409487 7.87757 0H30.2015C31.8096 0 33.1133 1.34315 33.1133 3V19C33.1133 20.6569 31.8096 22 30.2015 22Z" fill="#68D585"/>
</g>
</svg>
