<svg width="41" height="40" viewBox="0 0 41 40" fill="none" xmlns="http://www.w3.org/2000/svg">
<g id="share-91">
<path id="Path" opacity="0.4" d="M35.5678 23.6363C35.0657 23.6363 34.6587 24.0433 34.6587 24.5454V38.1817H1.93146V10.909H6.47692C6.97899 10.909 7.38601 10.502 7.38601 9.99991C7.38601 9.49783 6.97899 9.09082 6.47692 9.09082H1.02237C0.520295 9.09082 0.113281 9.49783 0.113281 9.99991V39.0908C0.113281 39.5929 0.520295 39.9999 1.02237 39.9999H35.5678C36.0699 39.9999 36.4769 39.5929 36.4769 39.0908V24.5454C36.4769 24.0433 36.0699 23.6363 35.5678 23.6363Z" fill="#68D585"/>
<path id="Path_2" d="M39.8031 12.9492L25.2576 0.224499C24.9891 -0.0100925 24.6082 -0.0660628 24.2835 0.0813636C23.9589 0.22879 23.7504 0.552386 23.7504 0.908907V7.28309C12.4431 7.57939 7.38672 13.4982 7.38672 26.3584C7.38688 26.7481 7.63557 27.0944 8.0049 27.2191C8.09854 27.2511 8.19684 27.2674 8.29581 27.2673C8.581 27.2686 8.85026 27.136 9.02308 26.9092C12.0467 22.9463 14.9076 20.1087 23.7504 20.0015V26.3638C23.7504 26.7203 23.9589 27.0439 24.2835 27.1914C24.6082 27.3388 24.9891 27.2828 25.2576 27.0482L39.8031 14.3235C40.0007 14.1509 40.114 13.9014 40.114 13.6391C40.114 13.3768 40.0007 13.1273 39.8031 12.9547V12.9492Z" fill="#68D585"/>
</g>
</svg>
