<svg width="42" height="36" viewBox="0 0 42 36" fill="none" xmlns="http://www.w3.org/2000/svg">
<g id="users-wm">
<path id="Path" opacity="0.4" d="M38.819 25.5089L31.9351 22.9242C31.6319 22.8109 31.414 22.534 31.3688 22.2042L31.0159 19.6519C33.4797 18.2154 35.0064 15.5226 35.0137 12.6005V7.26543C35.0109 4.82211 33.2433 2.7651 30.8947 2.47214L30.134 0.900771C29.7693 0.167143 28.9379 -0.178021 28.183 0.0907884L23.489 1.82325C22.0354 2.41492 20.837 3.52778 20.1133 4.95788C22.3819 6.90721 23.6915 9.79919 23.6859 12.8471V14.4005C23.8906 16.7494 24.6376 19.0135 25.8643 21.0027C26.2806 21.6475 26.4086 22.4459 26.2156 23.1948C26.0227 23.9437 25.5276 24.5709 24.8561 24.9167C24.5763 25.0541 24.2871 25.1702 23.9909 25.2641L25.1916 25.6358C27.408 26.3137 28.9248 28.4216 28.9141 30.8089V35.1C28.9112 35.4073 28.857 35.7118 28.7538 36H40.2419C40.7232 36 41.1133 35.5971 41.1133 35.1V28.8902C41.1099 27.3779 40.1941 26.0282 38.819 25.5089Z" fill="#68D585"/>
<path id="Path_2" d="M26.2132 36H1.01331C0.51626 36 0.113317 35.5907 0.113317 35.0857V30.7264C0.106223 29.1087 1.15197 27.6809 2.67921 27.2229L8.65249 25.4025C8.98742 25.2994 9.23314 25.0084 9.28249 24.6565L9.42829 23.6279C5.5718 24.2231 3.40911 23.1534 3.30831 23.104C3.07715 22.9868 2.90674 22.7743 2.84044 22.5206C2.77414 22.267 2.81835 21.9966 2.96181 21.7783C4.43069 19.46 5.30762 16.8063 5.5133 14.0572V12.2286C5.5133 9.95097 6.44258 7.77522 8.07994 6.2193C9.71729 4.66338 11.9162 3.86648 14.1533 4.01832C18.4695 4.38387 21.7717 8.07952 21.7133 12.4791V14.0572C21.9181 16.806 22.7941 19.4597 24.2621 21.7783C24.4055 21.9966 24.4497 22.267 24.3834 22.5206C24.3171 22.7743 24.1467 22.9868 23.9156 23.104C23.8166 23.1534 21.6539 24.2222 17.7956 23.6279L17.9414 24.6565C17.9907 25.0084 18.2364 25.2994 18.5714 25.4025L24.5474 27.2229C26.0746 27.6809 27.1203 29.1087 27.1132 30.7264V35.0857C27.1132 35.5907 26.7103 36 26.2132 36Z" fill="#68D585"/>
</g>
</svg>
